<svg xmlns="http://www.w3.org/2000/svg" viewBox="0 0 1937.35 720"><defs><style>.cls-1{fill:#bbb;}</style></defs><title>Horizontal Solid grey</title><g id="Original"><path class="cls-1" d="M706.72,430.29l-.12-53.07L687,422.12H673.47l-19.59-44.91v53.07H635.33V348.52h22.75l22.16,48.64,22.16-48.64H725v81.76Z"/><path class="cls-1" d="M741.47,430.29V348.64h20.76v81.65Z"/><path class="cls-1" d="M855.18,430.29H830.34l-17.61-26-17.61,26H771l29.16-41.76-27.29-39.89H797l15.75,23.79,15.75-23.79h24.38l-26.94,39Z"/><path class="cls-1" d="M884.92,365v16.21h39v16.33h-39V414h44.44v16.33h-65.2V348.64h63.92V365Z"/><path class="cls-1" d="M977.88,348.64c25.66,0,43.39,16.56,43.39,40.82s-18,40.82-44.21,40.82H942.77V348.64Zm-14.35,65.08h14.81c12.71,0,21.81-9.8,21.81-24.14s-9.56-24.38-22.74-24.38H963.53Z"/><path class="cls-1" d="M1096.37,407.31H1080v23h-20.76V348.64h36.51c21.58,0,33.94,10.26,33.94,28.46,0,12.48-5.25,21.46-14.81,26.24l17.15,26.94H1108.5Zm-.58-16.33c9,0,14.23-4.55,14.23-13.18S1104.77,365,1095.79,365H1080v26Z"/><path class="cls-1" d="M1226.65,389.35c0,23.79-18.9,41.87-44.21,41.87s-44.09-18-44.09-41.87,18.9-41.41,44.09-41.41S1226.65,365.67,1226.65,389.35Zm-67.07.12c0,13.76,10.61,24.38,23.09,24.38s22.63-10.61,22.63-24.38-10-24.14-22.63-24.14S1159.59,375.7,1159.59,389.46Z"/><path class="cls-1" d="M1293,412.91v17.38h-55.4V348.64h20.76v64.27Z"/><path class="cls-1" d="M1323.69,365v16.21h39v16.33h-39V414h44.44v16.33h-65.2V348.64h63.92V365Z"/><path class="cls-1" d="M1417.11,348.64c20.88,0,32.89,10.26,32.89,28.46,0,19.13-12,30.21-32.89,30.21h-14.81v23h-20.76V348.64ZM1402.29,391h13.76c9.1,0,14.35-4.55,14.35-13.18S1425.15,365,1416.06,365h-13.76Z"/><path class="cls-1" d="M1516.24,412.91v17.38h-55.4V348.64h20.76v64.27Z"/><path class="cls-1" d="M1545,415.24l-5.95,15h-21.34L1553,348.64h21.34l34.41,81.65h-22.16l-5.83-15Zm18-46-11.9,30.21h23.56Z"/><path class="cls-1" d="M1652.12,430.29h-20.65V404.51l-30.21-55.87H1622l19.71,35.57L1661,348.64h20.76l-29.63,55.29Z"/></g><g id="W_G_B"><path class="cls-1" d="M554.06,230.87l.1-.2a51.69,51.69,0,0,0-49.51-43.18c-3.7,4.83-21.63,28-42.3,50.85-32,35.48-54.26,52.72-67.92,52.72s-36-17.24-68.35-52.71c-20.85-22.86-39-46-42.73-50.84a51.38,51.38,0,0,0-48.46,42v.21l-.09.29c-.09.49-.17,1-.24,1.48a51.91,51.91,0,0,0-.53,7.37V256l79,78.8c6.15,6.64,10.29,10.92,10.93,11.58l.07.06,14.38,14.37c1.39,1.41,2.14,2.15,2.15,2.16L370.68,393a33.35,33.35,0,0,0,47,0l47.52-47.5h0L554.83,256V238.89c0-1.06,0-2.06-.09-3,0-.22,0-.43,0-.65l0-.25c-.12-1.21-.26-2.23-.43-3.08Z"/><path class="cls-1" d="M308.62,339,234,264.6V451.26c20.39-45.78,40.32-77.35,59.3-93.9l.18-.15,1.5-1.12c.56-.52,1.14-1,1.72-1.5l.52-.43c.65-.52,1.31-1,2-1.5l.36-.25q.91-.63,1.86-1.2l.5-.3q1.08-.64,2.2-1.2l.42-.2q1-.51,2.12-1l.33-.14c.8-.33,1.61-.62,2.44-.89l.41-.13a39,39,0,0,1,5.18-1.27l.18,0C313.48,344.18,311.23,341.78,308.62,339Z"/><polygon class="cls-1" points="234.04 264.6 234.03 264.59 234.03 451.27 234.04 451.26 234.04 264.6"/><path class="cls-1" d="M315.08,346.1a39,39,0,0,0-5.18,1.27A39,39,0,0,1,315.08,346.1Z"/><path class="cls-1" d="M295,356.07q.83-.77,1.69-1.48c-.58.48-1.16,1-1.72,1.5Z"/><path class="cls-1" d="M234.76,465.33l.08.47c.07.4.14.79.22,1.18s.14.67.22,1,.17.79.27,1.17.18.67.27,1,.2.75.31,1.13.22.7.33,1,.22.7.34,1,.27.75.4,1.12.22.62.34.92.33.81.5,1.22.22.52.33.78c.2.45.41.89.62,1.33l.29.61c.24.5.5,1,.76,1.47l.22.42q.45.82.92,1.62l.14.23q.54.9,1.11,1.77l0,0a51.84,51.84,0,0,0,40,23.27V423.91C263.94,441,248.3,454.59,234.76,465.33Z"/><path class="cls-1" d="M242.46,484.9a51.76,51.76,0,0,0,40,23.27h0A51.84,51.84,0,0,1,242.46,484.9Z"/><path class="cls-1" d="M234.75,465.33c0,.16.06.31.09.46l-.08-.47Z"/><path class="cls-1" d="M282.41,384.9c0-.61,0-1.24.05-1.87,0-.09,0-.18,0-.26,0-.33,0-.65.06-1l.1-1c.13-1.22.32-2.44.56-3.65-11.7,14.69-26.44,38.31-43.39,76.23,12.37-10.24,26.41-22.7,42.61-37.79Z"/><path class="cls-1" d="M234.85,464.71l-.14.33.05.29c13.54-10.74,29.19-24.34,47.65-41.42v-4.17c-14.65,13.6-30.46,27.74-45.33,39.8C236.34,461.24,235.6,463,234.85,464.71Z"/><path class="cls-1" d="M234.71,465v0c0,.09,0,.19.05.28h0Z"/><path class="cls-1" d="M282.41,384.9v30.67c-16.19,15.09-30.24,27.54-42.61,37.79q-1.35,3-2.73,6.18c14.88-12.06,30.69-26.2,45.33-39.8V384.89c0-.17,0-.34,0-.52,0-.4,0-.79,0-1.2,0,0,0-.1,0-.15C282.43,383.66,282.41,384.29,282.41,384.9Z"/><path class="cls-1" d="M282.63,380.77l-.1,1c0,.33,0,.65-.06,1,0-.08,0-.15,0-.22,0-.25,0-.5,0-.76l.07-.76v-.09l0-.17c.13-1.22.32-2.44.56-3.65h0C282.94,378.33,282.75,379.55,282.63,380.77Z"/><path class="cls-1" d="M282.49,382.54c0-.5.07-1,.12-1.51l-.07.76C282.51,382,282.5,382.29,282.49,382.54Z"/><path class="cls-1" d="M282.62,380.93q.2-1.93.59-3.83h0c-.24,1.21-.44,2.43-.56,3.65Z"/><path class="cls-1" d="M495.55,357.35c19,16.56,38.9,48.11,59.29,93.88V264.62L473.39,346c.3,0,.59.12.89.18l.89.18c.61.13,1.21.26,1.81.42l.75.21c.65.18,1.3.37,1.93.58h0l.92.34c.65.24,1.29.48,1.92.75l1.2.54q.91.43,1.8.9l.34.18.2.11a39.51,39.51,0,0,1,4.85,3.17l.11.09a39.83,39.83,0,0,1,3.06,2.58Z"/><path class="cls-1" d="M429.48,261.8a58.2,58.2,0,0,1-68.08,2c13.34,12,25.32,20.14,33,20.14C402.58,283.93,415.37,274.83,429.48,261.8Z"/><path class="cls-1" d="M506.48,423.92v84.25c.95-.06,1.89-.15,2.83-.26l.13,0h0c1.15-.14,2.3-.31,3.43-.52l.4-.08A51.93,51.93,0,0,0,545,487l0,0q.62-.85,1.21-1.73l.17-.26a51.38,51.38,0,0,0,3-5.2l.17-.33c.22-.44.42-.88.63-1.33l.44-1c.21-.47.41-.95.6-1.43l0-.06c.22-.55.42-1.11.63-1.68l.24-.69q.24-.71.46-1.43l.2-.65q.2-.69.38-1.38l.22-.84q.15-.62.29-1.25c.09-.42.18-.85.26-1.28s.16-.8.22-1.21C540.41,454.38,524.4,440.49,506.48,423.92Z"/><path class="cls-1" d="M509.3,507.91l.17,0h0Z"/><path class="cls-1" d="M505.69,377.08l0,.14q.12.59.22,1.19c0,.25.08.5.12.75s.09.66.13,1,.06.4.08.59l0,.5v0l0,.44c0,.29,0,.56,0,.84,0,.13,0,.26,0,.38s0,.11,0,.17v0q0,.82,0,1.59c0,.06,0,.12,0,.18v30.68c15.69,14.63,30,27.25,42.56,37.68C537.46,427.39,522.29,397.89,505.69,377.08Z"/><path class="cls-1" d="M506.35,381.71l0-.44c0,.28,0,.55.06.83s0,.3,0,.45C506.38,382.27,506.37,382,506.35,381.71Z"/><path class="cls-1" d="M505.69,377.08h0l0,.14Z"/><path class="cls-1" d="M506.26,380.74c0-.2-.05-.4-.08-.59l.05.47c0,.15,0,.3.05.45s0,.12,0,.17Z"/><path class="cls-1" d="M551.77,459.44c-14.86-12-30.67-26.12-45.29-39.69v4.17c17.93,16.57,33.93,30.46,47.67,41.35l0-.11,0-.11-.14-.33Q552.93,462.12,551.77,459.44Z"/><path class="cls-1" d="M554.19,465.05h0l0,.11Z"/><path class="cls-1" d="M549,453.26c-12.6-10.43-26.86-23.05-42.56-37.68v4.18c14.62,13.57,30.43,27.65,45.29,39.69Q550.44,456.39,549,453.26Z"/><path class="cls-1" d="M506.3,381.24c0-.06,0-.12,0-.17,0,.34.06.69.08,1,0-.28,0-.56-.06-.83Z"/><path class="cls-1" d="M506,379.15c0-.25-.08-.5-.12-.75q-.1-.6-.22-1.19l0-.14h0c.24,1.18.43,2.37.56,3.56l-.05-.47C506.14,379.82,506.1,379.48,506,379.15Z"/></g></svg>