<svg id="Original" xmlns="http://www.w3.org/2000/svg" viewBox="0 0 1937.35 720"><defs><style>.cls-1{fill:#28b67a;}.cls-2{fill:#249681;}.cls-3{fill:#00696a;}.cls-4{fill:#afd8a1;}</style></defs><title>Primary Full Tone Color</title><path class="cls-1" d="M554.83,241.26V455c0,.61,0,1.21,0,1.81s0,1.15-.08,1.72h0c0,.57-.09,1.13-.14,1.69a.08.08,0,0,0,0,.05v0c-.06.54-.12,1.07-.19,1.6,0,0,0,.07,0,.1l-.09.64v0l0,.18c0,.17,0,.32-.07.48s-.05.36-.08.54h0c0,.17-.07.35-.1.52s0,.07,0,.11c-.07.38-.14.76-.22,1.13a.2.2,0,0,1,0,.08s0,.05,0,.08c-.08.39-.16.79-.26,1.19a.35.35,0,0,1,0,.1c-.1.42-.2.83-.31,1.24s-.22.85-.34,1.27-.25.85-.38,1.26a.09.09,0,0,1,0,0c-.13.4-.26.8-.4,1.2s-.28.82-.43,1.23c-.25.7-.52,1.38-.81,2.06-.11.26-.22.52-.34.78l-.12.3a1.38,1.38,0,0,1-.06.13l-.2.42c-.16.37-.33.74-.51,1.1s-.29.59-.44.89a.53.53,0,0,1-.08.15c-.08.17-.17.34-.26.5-.18.35-.36.7-.55,1-.3.56-.62,1.1-1,1.64-.12.21-.25.42-.38.62l-.48.77c-.05.09-.11.17-.16.25l-.45.67-.68,1c-.41.59-.84,1.17-1.28,1.74-.31.4-.63.81-.95,1.2s-.44.54-.67.8-.5.6-.76.89l-.78.87c-.33.36-.67.72-1,1.07-.19.21-.39.42-.6.61-.55.56-1.12,1.09-1.7,1.62a53,53,0,0,1-6.13,4.84c-.19.12-.38.26-.58.38l-.73.47-.56.36-.58.35-.87.52-1,.57c-.44.24-.89.48-1.33.7s-.9.46-1.36.67l-.81.38c-.93.43-1.87.82-2.82,1.19l-.45.17-.45.16-.73.27-.73.25c-.83.28-1.68.54-2.53.77a47.8,47.8,0,0,1-5,1.13c-.46.09-.91.16-1.37.23l-1.2.16H508l-.44.06h-.13l-.28,0-.44,0c-1.21.12-2.43.21-3.67.24h-1.67v-124c0-.95,0-1.9-.11-2.83l-.09-.93c-.12-1.15-.3-2.29-.53-3.4-.05-.25-.11-.51-.17-.76s-.15-.67-.24-1-.13-.51-.21-.77-.17-.59-.26-.88c0-.11-.07-.22-.11-.34s-.11-.31-.16-.47a.57.57,0,0,0,0-.12c-.13-.39-.27-.77-.42-1.15s-.21-.56-.33-.84c-.22-.53-.45-1.06-.69-1.57l-.08-.15-.09-.2c-.22-.45-.44-.89-.68-1.33a2.13,2.13,0,0,1-.11-.21c-.1-.19-.21-.38-.32-.57a1.64,1.64,0,0,1-.1-.18l-.3-.51c-.05-.08-.1-.15-.14-.23l-.15-.24-.78-1.21c-.15-.21-.29-.43-.45-.64l0-.06-.48-.66s0,0,0,0l-.12-.15c-.31-.41-.62-.81-1-1.2-.54-.66-1.11-1.3-1.7-1.92l-.09-.09c-.17-.17-.34-.35-.52-.52s-.39-.4-.6-.6l-.12-.11,0,0-.49-.45a34.63,34.63,0,0,0-4.77-3.65c-.72-.47-1.45-.91-2.21-1.32-.5-.28-1-.54-1.54-.79s-1-.49-1.57-.72l-.81-.33c-.54-.21-1.08-.41-1.63-.6a35.3,35.3,0,0,0-11.4-1.88h-.58l-45.73,45.72a35.72,35.72,0,0,1-50.38,0l-29.5-29.49s-.75-.74-2.12-2.13l-14.11-14.1h-.1a35.5,35.5,0,0,0-24.41,9.74l0,0a35.76,35.76,0,0,0-3.57,3.91c-.36.45-.7.9-1,1.37a.21.21,0,0,1,0,.06c-.35.48-.68,1-1,1.48s-.57.89-.83,1.35-.36.64-.53,1-.46.88-.68,1.33c-.06.12-.11.24-.17.35-.24.51-.47,1-.69,1.57q-.18.42-.33.84c-.22.56-.42,1.12-.6,1.69-.14.42-.27.84-.39,1.27-.08.26-.15.51-.21.77s-.17.66-.24,1-.12.51-.17.76c-.23,1.11-.41,2.25-.53,3.4l-.09.93c-.07.93-.11,1.88-.11,2.83v124a53.64,53.64,0,0,1-52.87-45.58l0-.21-.07-.55s0-.07,0-.11c-.16-1.14-.27-2.3-.35-3.47s-.12-2.35-.12-3.53V241.26a53.43,53.43,0,0,1,.55-7.63c.08-.59.18-1.18.29-1.76,0,0,0,0,0,0a53.64,53.64,0,0,1,52.6-44h.15l68.59,68.58a53.59,53.59,0,0,0,75.58,0l68.59-68.58h.88a53.63,53.63,0,0,1,52.89,45.82c.05.32.09.63.13.94s.08.63.11.94.05.51.08.77,0,.27,0,.4l.06.73c0,.64.08,1.28.11,1.92,0,.26,0,.54,0,.81S554.83,240.89,554.83,241.26Z"/><path class="cls-2" d="M323.33,348.85h-.1a35.5,35.5,0,0,0-24.41,9.74l0,0a35.76,35.76,0,0,0-3.57,3.91c-.36.45-.7.9-1,1.37a.21.21,0,0,1,0,.06c-.35.48-.68,1-1,1.48s-.57.89-.83,1.35-.36.64-.53,1-.46.88-.68,1.33c-.06.12-.11.24-.17.35-.24.51-.47,1-.69,1.57q-.18.42-.33.84c-.22.56-.42,1.12-.6,1.69-.14.42-.27.84-.39,1.27-.08.26-.15.51-.21.77s-.17.66-.24,1-.12.51-.17.76c-.23,1.11-.41,2.25-.53,3.4l-.09.93c-.07.93-.11,1.88-.11,2.83v31.39c-16.79,15.67-35.39,32.35-52.37,45.76-.07.06-.5,1.28-.5,1.28l0-.21-.07-.55s0-.08,0-.11c-.15-1.14-.27-2.3-.34-3.47s-.12-2.35-.12-3.53V241.26a53.43,53.43,0,0,1,.55-7.63c13.38,32,57.2,81.47,77.77,103.71C319.11,344.51,323.33,348.85,323.33,348.85Z"/><path class="cls-3" d="M298.82,358.59a35.59,35.59,0,0,0-11.22,25.89v124a53.65,53.65,0,0,1-52.9-45.79l.48-1.11c25.66-60.21,46.91-88.62,62.11-101.87Z"/><path class="cls-2" d="M465.17,348.85h.58a35.74,35.74,0,0,1,35.63,35.63v31.39c16.78,15.67,35.43,32.31,52.41,45.73a10.54,10.54,0,0,1,.46,1.29l.11-.85a53.12,53.12,0,0,0,.46-7V241.26a52.79,52.79,0,0,0-.55-7.62C536.59,275.93,465.17,348.85,465.17,348.85Z"/><path class="cls-4" d="M500.51,187.81s-76.65,101.13-106,101.13S287.6,187.81,287.6,187.81h.15l68.59,68.58a53.6,53.6,0,0,0,75.58,0Z"/><path class="cls-3" d="M490.18,358.59a35.59,35.59,0,0,1,11.22,25.89v124a53.65,53.65,0,0,0,52.9-45.79l-.48-1.11C528.15,401.39,506.9,373,491.7,359.73Z"/><path class="cls-1" d="M427.5,386.52,554.84,259.25s1.13-19.44-1.05-27.38S427.5,386.52,427.5,386.52Z"/><path class="cls-1" d="M361.78,386.51l-49.31-49.17-78.32-78.1v-18a53.43,53.43,0,0,1,.55-7.63c.08-.59.18-1.18.29-1.76,0,0,0,0,0,0C237.19,223.88,361.78,386.51,361.78,386.51Z"/><path class="cls-1" d="M706.72,430.61l-.12-53.07L687,422.45H673.47l-19.59-44.91v53.07H635.33V348.85h22.75l22.16,48.64,22.16-48.64H725v81.76Z"/><path class="cls-1" d="M741.47,430.61V349h20.76v81.65Z"/><path class="cls-1" d="M855.18,430.61H830.34l-17.61-26-17.61,26H771l29.16-41.76L772.84,349H797l15.75,23.79L828.47,349h24.38l-26.94,39Z"/><path class="cls-1" d="M884.92,365.29v16.21h39v16.33h-39v16.45h44.44v16.33h-65.2V349h63.92v16.33Z"/><path class="cls-1" d="M977.88,349c25.66,0,43.39,16.56,43.39,40.82s-18,40.82-44.21,40.82H942.77V349ZM963.53,414h14.81c12.71,0,21.81-9.8,21.81-24.14s-9.56-24.38-22.74-24.38H963.53Z"/><path class="cls-1" d="M1096.37,407.63H1080v23h-20.76V349h36.51c21.58,0,33.94,10.26,33.94,28.46,0,12.48-5.25,21.46-14.81,26.24l17.15,26.94H1108.5Zm-.58-16.33c9,0,14.23-4.55,14.23-13.18s-5.25-12.83-14.23-12.83H1080v26Z"/><path class="cls-1" d="M1226.65,389.67c0,23.79-18.9,41.87-44.21,41.87s-44.09-18-44.09-41.87,18.9-41.41,44.09-41.41S1226.65,366,1226.65,389.67Zm-67.07.12c0,13.76,10.61,24.38,23.09,24.38s22.63-10.61,22.63-24.38-10-24.14-22.63-24.14S1159.59,376,1159.59,389.79Z"/><path class="cls-1" d="M1293,413.23v17.38h-55.4V349h20.76v64.27Z"/><path class="cls-1" d="M1323.69,365.29v16.21h39v16.33h-39v16.45h44.44v16.33h-65.2V349h63.92v16.33Z"/><path class="cls-1" d="M1417.11,349c20.88,0,32.89,10.26,32.89,28.46,0,19.13-12,30.21-32.89,30.21h-14.81v23h-20.76V349Zm-14.81,42.34h13.76c9.1,0,14.35-4.55,14.35-13.18s-5.25-12.83-14.35-12.83h-13.76Z"/><path class="cls-1" d="M1516.24,413.23v17.38h-55.4V349h20.76v64.27Z"/><path class="cls-1" d="M1545,415.57l-5.95,15h-21.34L1553,349h21.34l34.41,81.65h-22.16l-5.83-15Zm18-46-11.9,30.21h23.56Z"/><path class="cls-1" d="M1652.12,430.61h-20.65V404.83L1601.26,349H1622l19.71,35.57L1661,349h20.76l-29.63,55.29Z"/></svg>