<?xml version="1.0" encoding="UTF-8" standalone="no"?>
<!-- Created with Inkscape (http://www.inkscape.org/) -->

<svg
   xmlns:dc="http://purl.org/dc/elements/1.1/"
   xmlns:cc="http://creativecommons.org/ns#"
   xmlns:rdf="http://www.w3.org/1999/02/22-rdf-syntax-ns#"
   xmlns:svg="http://www.w3.org/2000/svg"
   xmlns="http://www.w3.org/2000/svg"
   version="1.1"
   width="365"
   height="77"
   id="svg2985">
  <metadata
     id="metadata2991">
    <rdf:RDF>
      <cc:Work
         rdf:about="">
        <dc:format>image/svg+xml</dc:format>
        <dc:type
           rdf:resource="http://purl.org/dc/dcmitype/StillImage" />
        <dc:title></dc:title>
      </cc:Work>
    </rdf:RDF>
  </metadata>
  <defs
     id="defs2989" />
  <path
     d="m 186,11 0,7 14,0 0,7 -7,0 0,21 -7,0 0,14 -7,0 0,7 28,0 0,-7 -7,0 0,-7 21,0 0,7 -7,0 0,7 49,0 0,-7 -7,0 0,-14 7,0 0,7 7,0 0,7 7,0 0,7 49,0 0,-7 -14,0 0,-14 21,0 0,-7 7,0 0,-21 -7,0 0,-7 -42,0 0,7 7,0 0,42 -14,0 0,-7 -7,0 0,-14 7,0 0,-21 -7,0 0,-7 -42,0 0,7 7,0 0,42 -7,0 0,-14 -7,0 0,-21 -7,0 0,-14 -35,0 z m 70,7 14,0 0,21 -14,0 0,-21 z m 56,0 14,0 0,21 -14,0 0,-21 z m -105,7 7,0 0,21 -7,0 0,-21 z m -77,-14 0,7 7,0 0,42 -7,0 0,7 35,0 0,-7 -14,0 0,-14 21,0 0,-7 7,0 0,-21 -7,0 0,-7 -42,0 z m 21,7 14,0 0,21 -13,0 -1,0 0,-21 z m -72,0 7,0 0,-7 35,0 0,14 -14,0 0,-7 -14,0 0,14 14,0 0,7 7,0 0,7 7,0 0,14 -7,0 0,7 -35,0 0,-14 14,0 0,7 14,0 0,-14 -14,0 0,-7 -7,0 0,-7 -7,0 z m -70,-7 21,0 0,7 7,0 0,21 7,0 0,-21 7,0 0,-7 21,0 0,7 -7,0 0,42 7,0 0,7 -28,0 0,-7 7,0 0,-21 -7,0 0,14 -7,0 0,-14 -7,0 0,21 7,0 0,7 -28,0 0,-7 7,0 0,-42 -7,0 z"
     id="path3778"
     style="fill:#2d2d2d;fill-opacity:1;stroke:none" />
</svg>
